<?xml version="1.0" encoding="utf-8"?>
<svg version="1.0" viewBox="0 0 48 48" enable-background="new 0 0 48 48" xmlns="http://www.w3.org/2000/svg">
  <defs/>
  <path fill="#FFA000" d="M 40 6.245 L 22 6.245 L 18 2.043 L 8 2.043 C 5.8 2.043 4 3.934 4 6.245 L 4 14.649 L 44 14.649 L 44 10.447 C 44 8.135 42.2 6.245 40 6.245 Z" style=""/>
  <path fill="#FFCA28" d="M 40 6.245 L 8 6.245 C 5.8 6.245 4 8.855 4 12.048 L 4 41.063 C 4 44.254 5.8 46.866 8 46.866 L 40 46.866 C 42.2 46.866 44 44.254 44 41.063 L 44 12.048 C 44 8.855 42.2 6.245 40 6.245 Z" style=""/>
</svg>